<svg width="21" height="21" viewBox="0 0 21 21" fill="none" xmlns="http://www.w3.org/2000/svg">
<path d="M16.2021 0C13.7686 0 11.7834 1.98524 11.7193 4.41875V9.34983C11.271 9.34983 10.8228 9.41387 10.3104 9.41387C9.79811 9.41387 9.34983 9.41387 8.90155 9.47791V4.41875C8.90155 1.98524 6.85228 -2.23517e-08 4.35472 0.06404C1.98524 0.06404 0.06404 2.04928 0 4.41875V16.2021C0.06404 18.6356 2.04928 20.6209 4.54684 20.5568C6.98036 20.4928 8.90155 18.5716 8.90155 16.2021V11.271C9.34983 11.271 9.79811 11.207 10.3104 11.207C10.8228 11.207 11.271 11.207 11.7193 11.143V16.1381C11.7834 18.5716 13.7686 20.5568 16.2661 20.4928C18.6997 20.4288 20.6209 18.5076 20.6209 16.1381V4.41875C20.6209 1.98524 18.6356 0 16.2021 0ZM4.4828 1.79312C5.95572 1.79312 7.10844 2.94584 7.10844 4.41875V9.60599C5.82764 9.79809 4.54684 10.1824 3.33008 10.6947C2.81776 10.9508 2.30544 11.207 1.85716 11.5912V4.41875C1.85716 3.00988 3.00988 1.79312 4.4828 1.79312ZM7.10844 16.2021C7.10844 17.675 5.95572 18.8278 4.4828 18.8278C3.00988 18.8278 1.85716 17.675 1.85716 16.2021V15.0494C1.85716 14.0248 2.68968 13.0001 4.09856 12.4238C5.05916 11.9755 6.0838 11.7193 7.17248 11.5272L7.10844 16.2021ZM16.2021 18.8278C14.7292 18.8278 13.5765 17.675 13.5765 16.2021V11.0149C14.8573 10.8228 16.1381 10.4385 17.3548 9.92619C17.8671 9.66999 18.3795 9.41387 18.8277 9.02963V16.2021C18.8277 17.675 17.611 18.8278 16.2021 18.8278ZM16.5863 8.26115C15.6257 8.70943 14.6011 8.96559 13.5124 9.15771V4.41875C13.5124 2.94584 14.6652 1.79312 16.1381 1.79312C17.611 1.79312 18.7637 2.94584 18.7637 4.41875V5.57147C18.8277 6.66015 17.9952 7.62075 16.5863 8.26115Z" fill="url(#paint0_linear_3:1343)"/>
<defs>
<linearGradient id="paint0_linear_3:1343" x1="10.3104" y1="-4.23611e-07" x2="-3.90674" y2="14.2172" gradientUnits="userSpaceOnUse">
<stop stop-color="#00E8A2"/>
<stop offset="1" stop-color="#00ADE8"/>
</linearGradient>
</defs>
</svg>
